<svg id="Layer_1" data-name="Layer 1" xmlns="http://www.w3.org/2000/svg" xmlns:xlink="http://www.w3.org/1999/xlink" viewBox="0 0 241.27 733.49"><defs><style>.cls-1{fill:url(#linear-gradient);}.cls-2{fill:url(#linear-gradient-2);}.cls-3{fill:url(#linear-gradient-3);}.cls-4{fill:url(#linear-gradient-4);}.cls-5{fill:#560b0b;}.cls-6{fill:url(#linear-gradient-5);}.cls-7{fill:url(#linear-gradient-6);}.cls-8{fill:url(#linear-gradient-7);}</style><linearGradient id="linear-gradient" x1="-5115.81" y1="3517.15" x2="-5200.26" y2="3518.26" gradientTransform="translate(-3397.07 -4864.26) rotate(-90)" gradientUnits="userSpaceOnUse"><stop offset="0" stop-color="gray"/><stop offset="0.47" stop-color="#ccc"/><stop offset="0.66" stop-color="#ccc"/><stop offset="1" stop-color="gray"/></linearGradient><linearGradient id="linear-gradient-2" x1="-5093.54" y1="3517.7" x2="-5040.12" y2="3517.7" gradientTransform="translate(-3397.87 -4864.26) rotate(-90)" xlink:href="#linear-gradient"/><linearGradient id="linear-gradient-3" x1="-4997.18" y1="3517.71" x2="-4954.1" y2="3517.71" gradientTransform="translate(-3398.68 -4864.25) rotate(-90)" xlink:href="#linear-gradient"/><linearGradient id="linear-gradient-4" x1="-4876.22" y1="3543.38" x2="-4964.5" y2="3538.79" gradientTransform="matrix(0, -1, 1, 0, -3438.67, -4833.81)" gradientUnits="userSpaceOnUse"><stop offset="0" stop-color="#d81d1d"/><stop offset="1" stop-color="#701818"/></linearGradient><linearGradient id="linear-gradient-5" x1="-5255.17" y1="3543.94" x2="-5162.92" y2="3543.94" xlink:href="#linear-gradient-4"/><linearGradient id="linear-gradient-6" x1="-5127.26" y1="3543.34" x2="-5068.73" y2="3543.34" xlink:href="#linear-gradient-4"/><linearGradient id="linear-gradient-7" x1="-5038.72" y1="3542.92" x2="-4978.71" y2="3542.92" xlink:href="#linear-gradient-4"/></defs><ellipse class="cls-1" cx="120.64" cy="293.79" rx="120.64" ry="29.87" transform="translate(-2.58 1.07) rotate(-0.5)"/><ellipse class="cls-2" cx="119.84" cy="202.58" rx="107.88" ry="26.71" transform="translate(-1.77 1.06) rotate(-0.5)"/><ellipse class="cls-3" cx="119.03" cy="111.4" rx="90.48" ry="21.54" transform="translate(-0.97 1.05) rotate(-0.5)"/><path class="cls-4" d="M92.89,27.3a25.42,25.42,0,0,0,14.62,22.84h0l-1.43,40.1q6.23-.27,12.77-.32c4.18,0,8.25,0,12.2.08l-2.24-39.7A25.42,25.42,0,1,0,92.89,27.38Z"/><path class="cls-5" d="M92.82,308.22a39.51,39.51,0,0,1,55.5-.49,112.38,112.38,0,0,0-13.88-4.51,58.64,58.64,0,0,0-13.91-1.62,57.49,57.49,0,0,0-13.87,1.87A110.19,110.19,0,0,0,92.82,308.22Z"/><path class="cls-5" d="M93.54,213.49a38.87,38.87,0,0,1,11.95-8,36.82,36.82,0,0,1,28.78-.27A38.49,38.49,0,0,1,146.36,213a88.48,88.48,0,0,0-13.1-4.88,50.26,50.26,0,0,0-13.37-1.78,49.29,49.29,0,0,0-13.32,2A89.39,89.39,0,0,0,93.54,213.49Z"/><path class="cls-5" d="M96.9,122.25A32.15,32.15,0,0,1,107.11,116a34.17,34.17,0,0,1,24-.23,31.71,31.71,0,0,1,10.37,6.12,99.21,99.21,0,0,0-11.22-3.12,54.6,54.6,0,0,0-11.12-1.09A53.74,53.74,0,0,0,108,118.93,100,100,0,0,0,96.9,122.25Z"/><path class="cls-6" d="M96.1,368.37l2.28-63a48.24,48.24,0,0,1,44.8.37q1.75,31.13,3.48,62.21c-.81,14-12.7,24.76-26.14,24.31A25.68,25.68,0,0,1,96.1,368.37Z"/><path class="cls-7" d="M99.79,264.51l2-55a45.43,45.43,0,0,1,35.94,0l3,54.2q-9.3,0-18.89.17Q110.65,264.09,99.79,264.51Z"/><path class="cls-8" d="M103,176l2-56.14a26.51,26.51,0,0,1,27.75-.24l3.09,56.17-16.22.13Z"/></svg>